<svg width="469" height="99" viewBox="0 0 469 99" fill="none" xmlns="http://www.w3.org/2000/svg">
<path fill-rule="evenodd" clip-rule="evenodd" d="M6.14008 71.0533C2.04674 67.2613 0.000409427 61.8447 0.00107609 54.8033C-0.0293738 51.8178 0.586731 48.8611 1.80708 46.1363C2.97835 43.534 4.65009 41.1874 6.72708 39.2303C8.82101 37.2632 11.2726 35.7156 13.9491 34.6713C16.7235 33.5813 19.6802 33.0298 22.6611 33.0463C24.9807 33.0323 27.2857 33.4137 29.4771 34.1743C31.518 34.8727 33.4036 35.9613 35.0291 37.3793C36.6199 38.7996 37.8962 40.5368 38.7761 42.4793C39.7354 44.6217 40.2133 46.9483 40.1761 49.2953V49.9273C37.631 49.811 35.0808 49.8866 32.5471 50.1533C29.8725 50.4227 27.2281 50.9362 24.6471 51.6873C22.1114 52.4185 19.6719 53.4491 17.3801 54.7573C15.1693 56.0118 13.2225 57.6825 11.6471 59.6773C10.2399 61.3784 9.47319 63.5187 9.48008 65.7263V66.4483C9.48007 66.6918 9.5103 66.9343 9.57008 67.1703C10.9304 69.6691 12.9031 71.7814 15.3031 73.3093C17.7219 74.8262 20.5283 75.6102 23.3831 75.5663C25.3183 75.5648 27.24 75.2445 29.0711 74.6183C30.8856 74.0133 32.5809 73.0969 34.0811 71.9103C35.5605 70.7306 36.8141 69.2928 37.7811 67.6663C38.7766 66.0041 39.3787 64.1361 39.5411 62.2053H39.9921C39.7724 64.3002 39.1258 66.3279 38.0921 68.1633C37.0938 69.9368 35.76 71.4992 34.1651 72.7633C32.553 74.0371 30.737 75.0291 28.7941 75.6973C26.8208 76.3866 24.7453 76.7376 22.6551 76.7353C15.7371 76.7387 10.2321 74.8447 6.14008 71.0533ZM14.2201 35.7533C12.3832 37.0782 10.858 38.7884 9.75108 40.7643C8.59019 42.8253 7.73843 45.0457 7.22308 47.3543C6.69838 49.5888 6.42601 51.8751 6.41108 54.1703C6.40908 56.2605 6.60563 58.3462 6.99808 60.3993C7.40098 62.4809 8.1164 64.4897 9.12008 66.3573C8.96228 65.1668 9.05763 63.9564 9.39986 62.8053C9.7421 61.6541 10.3235 60.5882 11.1061 59.6773C12.4302 57.9924 14.0148 56.5297 15.8001 55.3443C17.5967 54.1449 19.5191 53.1456 21.5331 52.3643C23.5844 51.5722 25.6984 50.9533 27.8531 50.5143C29.9548 50.0764 32.08 49.7598 34.2181 49.5663V49.0243C34.2071 47.1598 33.8711 45.3114 33.2251 43.5623C32.5912 41.7787 31.6601 40.1152 30.4711 38.6423C29.3015 37.2016 27.8597 36.0052 26.2281 35.1213C24.5814 34.2212 22.7327 33.7552 20.8561 33.7673C18.4889 33.7013 16.1632 34.3979 14.2221 35.7543L14.2201 35.7533ZM81.2511 69.4273C82.2584 70.7403 83.3614 71.977 84.5511 73.1273C85.7261 74.2971 87.1673 75.1646 88.7511 75.6553V76.2893L73.6751 76.1993V75.6573C74.1763 75.4759 74.6096 75.1448 74.9164 74.7089C75.2231 74.273 75.3885 73.7533 75.3901 73.2203C75.3527 72.2194 74.97 71.2622 74.3071 70.5113L62.3901 54.7113C61.7901 55.4913 60.8567 56.645 59.5901 58.1723C58.3234 59.6996 57.0901 61.333 55.8901 63.0723C54.7326 64.7377 53.6644 66.4635 52.6901 68.2423C51.8757 69.5597 51.3951 71.0561 51.2901 72.6013C51.2725 73.2181 51.4455 73.8252 51.7855 74.34C52.1255 74.8549 52.616 75.2523 53.1901 75.4783V76.1073L41.9961 76.1983V75.5663C44.1014 74.6048 46.0374 73.309 47.7291 71.7293C49.6701 69.967 51.4806 68.066 53.1461 66.0413C54.8614 63.9653 56.4714 61.874 57.9761 59.7673C59.4807 57.6606 60.8351 55.825 62.0391 54.2603L50.9221 39.8173C49.9454 38.5368 48.8758 37.3299 47.7221 36.2063C46.5683 35.0756 45.1593 34.2394 43.6141 33.7683V33.0463H58.6821V33.7683C58.184 33.8967 57.7437 34.1893 57.4325 34.5989C57.1213 35.0085 56.9573 35.511 56.9671 36.0253C57.1859 37.1581 57.6652 38.2246 58.3671 39.1403C59.3004 40.615 60.3671 42.1483 61.5671 43.7403C62.7671 45.3323 63.9407 46.837 65.0881 48.2543C66.2307 49.6696 67.0131 50.6776 67.4351 51.2783C68.0351 50.4363 68.8174 49.398 69.7821 48.1633C70.7467 46.9286 71.6801 45.635 72.5821 44.2823C73.4603 42.97 74.2446 41.5973 74.9291 40.1743C75.529 39.0293 75.8681 37.7658 75.9221 36.4743C75.959 35.8879 75.8141 35.3043 75.5072 34.8032C75.2003 34.3021 74.7463 33.9079 74.2071 33.6743V33.0423H85.3071V33.6743C83.4237 34.4435 81.6839 35.5254 80.1611 36.8743C78.5091 38.3181 76.9712 39.8874 75.5611 41.5683C74.1164 43.283 72.7471 45.0283 71.4531 46.8043C70.1591 48.5803 68.9404 50.2203 67.7971 51.7243L81.2511 69.4273ZM125.622 34.9893C127.745 35.9851 129.612 37.4516 131.083 39.2773C132.565 41.1542 133.668 43.3005 134.333 45.5973C135.068 48.0882 135.433 50.6734 135.417 53.2703C135.431 56.3243 134.88 59.3546 133.792 62.2083C132.762 64.9493 131.231 67.4749 129.278 69.6563C127.324 71.8126 124.939 73.5348 122.278 74.7113C119.451 75.9638 116.388 76.5951 113.296 76.5623C109.297 76.6115 105.382 75.4121 102.096 73.1313V91.2773C102.096 92.1817 102.141 93.0855 102.232 93.9853C102.288 94.4358 102.507 94.85 102.848 95.1495C103.189 95.4491 103.628 95.613 104.082 95.6103V96.2423L95.6871 98.2293H95.0551V39.9093C95.0552 39.0049 95.0098 38.1011 94.9191 37.2013C94.863 36.751 94.6438 36.3368 94.3028 36.0373C93.9618 35.7379 93.5229 35.5738 93.0691 35.5763V34.9443L101.464 33.0443H102.096V44.3293C103.013 40.9421 105.173 38.0249 108.145 36.1593C111.096 34.3226 114.51 33.3671 117.985 33.4053C120.618 33.3512 123.228 33.8927 125.622 34.9893ZM119.754 74.1243C121.863 72.8265 123.665 71.0865 125.035 69.0243C126.45 66.8778 127.502 64.5128 128.149 62.0243C128.826 59.553 129.175 57.0035 129.188 54.4413C129.175 52.2228 128.917 50.0125 128.42 47.8503C127.942 45.651 127.135 43.536 126.028 41.5763C124.971 39.7096 123.524 38.0932 121.785 36.8373C119.908 35.5315 117.66 34.8652 115.375 34.9373C113.125 34.8444 110.891 35.3565 108.907 36.4202C106.922 37.484 105.259 39.0604 104.09 40.9853C103.789 41.4686 103.383 42.221 102.872 43.2423C102.442 43.9896 102.18 44.8215 102.104 45.6803V72.5803C103.638 73.588 105.272 74.4348 106.979 75.1073C108.676 75.772 110.484 76.109 112.306 76.1003C114.926 76.1595 117.509 75.4736 119.755 74.1223L119.754 74.1243ZM151.035 70.2423C151.038 71.2438 151.144 72.2424 151.351 73.2223C151.443 73.7111 151.64 74.1741 151.928 74.5793C152.217 74.9845 152.589 75.3223 153.021 75.5693V76.2013H142.008V75.5693C142.44 75.3222 142.812 74.9843 143.101 74.5791C143.389 74.1739 143.586 73.711 143.678 73.2223C143.884 72.2422 143.99 71.2438 143.994 70.2423V18.4213C143.994 17.5186 143.949 16.616 143.859 15.7133C143.803 15.2628 143.584 14.8485 143.242 14.549C142.901 14.2495 142.462 14.0856 142.008 14.0883V13.3653L150.408 11.4703H151.04V70.2403L151.035 70.2423ZM171.167 75.2983C168.789 74.2794 166.651 72.7722 164.893 70.8743C163.148 68.9608 161.797 66.7212 160.92 64.2843C159.968 61.6511 159.494 58.8691 159.52 56.0693C159.496 52.9388 160.11 49.8362 161.326 46.9513C162.468 44.2132 164.14 41.7279 166.246 39.6383C168.362 37.5664 170.861 35.9259 173.603 34.8083C176.496 33.6227 179.595 33.0244 182.721 33.0483C185.516 33.0082 188.291 33.5143 190.892 34.5383C193.255 35.4825 195.393 36.9135 197.166 38.7383C198.942 40.5937 200.324 42.7895 201.228 45.1933C202.211 47.8038 202.701 50.574 202.673 53.3633C202.69 56.5226 202.076 59.6536 200.867 62.5723C199.74 65.3662 198.071 67.9092 195.956 70.0546C193.841 72.2 191.322 73.9054 188.544 75.0723C185.65 76.3131 182.53 76.9432 179.381 76.9233C176.56 76.9599 173.762 76.4057 171.168 75.2963L171.167 75.2983ZM195.858 48.5763C195.308 46.108 194.395 43.7349 193.149 41.5343C191.961 39.4203 190.347 37.5758 188.41 36.1173C186.426 34.6548 184.013 33.8929 181.549 33.9513C179.086 33.8892 176.652 34.4975 174.507 35.7113C172.54 36.8683 170.834 38.4207 169.497 40.2703C168.121 42.1806 167.097 44.3207 166.472 46.5903C165.818 48.8802 165.483 51.2497 165.479 53.6313C165.493 56.1675 165.781 58.6948 166.337 61.1693C166.872 63.6918 167.801 66.1142 169.09 68.3473C170.318 70.4757 171.998 72.3091 174.011 73.7183C176.18 75.1791 178.754 75.9214 181.368 75.8403C183.876 75.9211 186.359 75.312 188.545 74.0793C190.475 72.9316 192.1 71.3372 193.285 69.4303C194.52 67.4275 195.405 65.2296 195.903 62.9303C196.441 60.5605 196.713 58.1383 196.715 55.7083C196.695 53.306 196.408 50.9133 195.859 48.5743L195.858 48.5763ZM235.129 34.0863C235.613 34.3161 236.02 34.6816 236.301 35.1384C236.581 35.5952 236.722 36.1236 236.708 36.6593C236.726 37.0988 236.626 37.5351 236.42 37.9238C236.214 38.3124 235.909 38.6393 235.535 38.8713C234.816 39.3631 233.968 39.63 233.097 39.6383C232.809 39.6581 232.521 39.5967 232.265 39.4612C232.01 39.3256 231.798 39.1213 231.653 38.8713C231.351 38.36 231.051 37.8183 230.753 37.2463C230.424 36.639 229.997 36.09 229.489 35.6213C228.745 35.044 227.809 34.7696 226.871 34.8533C226.048 34.8509 225.233 35.0212 224.479 35.3533C223.725 35.6863 222.91 35.8566 222.086 35.8533C221.289 35.8686 220.509 35.6138 219.875 35.1303C219.262 34.6714 218.754 34.0867 218.385 33.4153V70.2483C218.384 71.265 218.49 72.2789 218.701 73.2733C218.798 73.754 218.998 74.2082 219.286 74.6051C219.574 75.0019 219.944 75.3321 220.371 75.5733V76.1143H209.271V75.5733C209.717 75.3445 210.106 75.0194 210.41 74.6216C210.715 74.2238 210.927 73.7632 211.031 73.2733C211.242 72.2788 211.348 71.2649 211.347 70.2483V39.9073C211.349 38.9879 211.304 38.0691 211.212 37.1543C211.122 36.2823 210.475 35.7556 209.271 35.5743V34.9423L217.671 33.0423H218.393C218.857 33.6268 219.371 34.1704 219.928 34.6673C220.504 35.1619 221.246 35.4199 222.004 35.3893C223.526 35.3563 225.021 34.9864 226.383 34.3063C228.161 33.5355 230.088 33.1657 232.025 33.2233C233.116 33.2469 234.184 33.5448 235.13 34.0893L235.129 34.0863ZM243.66 71.0553C239.568 67.262 237.522 61.8447 237.522 54.8033C237.491 51.8178 238.108 48.8611 239.328 46.1363C240.499 43.5338 242.171 41.1872 244.248 39.2303C246.342 37.2632 248.794 35.7156 251.47 34.6713C254.245 33.5813 257.201 33.0298 260.182 33.0463C262.502 33.0323 264.807 33.4138 266.998 34.1743C269.039 34.873 270.924 35.9615 272.55 37.3793C274.14 38.7997 275.416 40.5368 276.296 42.4793C277.256 44.6216 277.734 46.9483 277.696 49.2953V49.9273C275.151 49.811 272.601 49.8866 270.067 50.1533C267.392 50.4227 264.748 50.9361 262.167 51.6873C259.631 52.4184 257.191 53.449 254.899 54.7573C252.689 56.012 250.742 57.6827 249.167 59.6773C247.76 61.3783 246.993 63.5186 247 65.7263V66.4483C247 66.6918 247.031 66.9343 247.09 67.1703C248.451 69.669 250.423 71.7813 252.823 73.3093C255.242 74.8262 258.048 75.6101 260.903 75.5663C262.838 75.5647 264.759 75.2444 266.59 74.6183C268.405 74.0132 270.101 73.0969 271.601 71.9103C273.081 70.7306 274.334 69.2928 275.301 67.6663C276.297 66.004 276.899 64.1361 277.062 62.2053H277.513C277.294 64.3003 276.647 66.328 275.613 68.1633C274.615 69.9368 273.281 71.4992 271.686 72.7633C270.074 74.0372 268.258 75.0292 266.315 75.6973C264.342 76.3865 262.266 76.7375 260.176 76.7353C253.258 76.7387 247.753 74.8447 243.661 71.0533L243.66 71.0553ZM251.74 35.7553C249.903 37.0803 248.378 38.7905 247.271 40.7663C246.11 42.8274 245.259 45.0477 244.743 47.3563C244.219 49.5909 243.946 51.8771 243.931 54.1723C243.929 56.2626 244.125 58.3483 244.518 60.4013C244.92 62.483 245.635 64.4917 246.639 66.3593C246.481 65.1688 246.577 63.9584 246.919 62.8072C247.261 61.6561 247.842 60.5902 248.625 59.6793C249.949 57.9942 251.534 56.5315 253.32 55.3463C255.116 54.1469 257.038 53.1476 259.052 52.3663C261.103 51.5742 263.217 50.9554 265.372 50.5163C267.473 50.0784 269.598 49.7619 271.736 49.5683V49.0263C271.725 47.1617 271.389 45.3133 270.743 43.5643C270.109 41.7808 269.178 40.1174 267.99 38.6443C266.82 37.2038 265.379 36.0075 263.747 35.1233C261.875 34.1362 259.771 33.6738 257.657 33.7849C255.544 33.8959 253.499 34.5764 251.741 35.7543L251.74 35.7553ZM285.368 74.8463C284.597 73.9756 284.179 72.8489 284.195 71.6863C284.183 70.5734 284.585 69.4957 285.323 68.6623C285.682 68.237 286.132 67.8982 286.64 67.6714C287.148 67.4445 287.701 67.3355 288.257 67.3523C288.826 67.3297 289.392 67.4266 289.921 67.6365C290.45 67.8465 290.929 68.1649 291.327 68.5713C291.719 68.987 292.025 69.4763 292.226 70.0111C292.428 70.5458 292.521 71.1153 292.5 71.6863C292.518 72.8412 292.117 73.9635 291.372 74.8463C291.02 75.2824 290.572 75.6314 290.063 75.8662C289.554 76.101 288.998 76.2154 288.438 76.2003C287.858 76.2192 287.28 76.1072 286.749 75.8727C286.218 75.6381 285.746 75.287 285.369 74.8453L285.368 74.8463ZM309.337 16.7523C309.126 17.7464 309.02 18.76 309.021 19.7763V70.6023C309.018 71.6042 309.124 72.6034 309.337 73.5823C309.446 74.0649 309.66 74.5175 309.965 74.9077C310.269 75.2978 310.656 75.6159 311.097 75.8393V76.4713H299.997V75.8393C300.424 75.598 300.794 75.2677 301.082 74.8709C301.37 74.4741 301.57 74.02 301.667 73.5393C301.875 72.5747 301.981 71.591 301.983 70.6043V19.7753C301.979 18.7742 301.873 17.776 301.667 16.7963C301.575 16.3076 301.378 15.8447 301.09 15.4395C300.801 15.0343 300.429 14.6965 299.997 14.4493V13.7273H311.097V14.4493C310.651 14.678 310.262 15.0034 309.957 15.4016C309.653 15.7998 309.442 16.2609 309.338 16.7513L309.337 16.7523ZM356.281 61.4393C356.311 64.3593 356.326 67.2927 356.327 70.2393C356.326 71.256 356.432 72.2699 356.643 73.2643C356.747 73.7544 356.959 74.2151 357.263 74.613C357.568 75.0108 357.957 75.3358 358.403 75.5643V76.1963H347.303V75.5643C347.749 75.3355 348.138 75.0104 348.442 74.6126C348.747 74.2148 348.959 73.7542 349.063 73.2643C349.274 72.2698 349.379 71.2559 349.379 70.2393V47.6713C349.379 46.0508 349.228 44.4338 348.928 42.8413C348.662 41.343 348.127 39.9054 347.348 38.5983C346.586 37.3558 345.532 36.3179 344.278 35.5743C342.807 34.747 341.136 34.3408 339.449 34.4003C337.943 34.4 336.454 34.7062 335.07 35.3003C333.686 35.8827 332.417 36.708 331.324 37.7373C330.235 38.7682 329.347 39.9927 328.706 41.3483C328.045 42.7289 327.705 44.2415 327.713 45.7723V70.3283C327.712 71.3446 327.817 72.3581 328.028 73.3523C328.132 73.8424 328.344 74.3032 328.649 74.7011C328.954 75.0989 329.343 75.4239 329.789 75.6523V76.2893H318.689V75.6573C319.135 75.4285 319.524 75.1034 319.828 74.7056C320.133 74.3078 320.345 73.8472 320.449 73.3573C320.66 72.3631 320.766 71.3496 320.765 70.3333V39.9973C320.767 39.0779 320.722 38.1591 320.63 37.2443C320.539 36.3723 319.892 35.8456 318.689 35.6643V35.0323L327.089 33.1323H327.721V42.8823C328.026 41.3443 328.645 39.8855 329.537 38.5965C330.43 37.3075 331.579 36.2158 332.911 35.3893C335.604 33.805 338.68 32.993 341.804 33.0423C344.347 32.931 346.873 33.508 349.116 34.7123C350.927 35.772 352.435 37.2801 353.495 39.0913C354.59 41.0186 355.324 43.1295 355.661 45.3203C356.055 47.7074 356.252 50.1229 356.248 52.5423C356.241 55.555 356.252 58.5203 356.282 61.4383L356.281 61.4393ZM422.229 70.3323C422.228 71.3486 422.334 72.3622 422.545 73.3563C422.649 73.8465 422.861 74.3073 423.166 74.7052C423.47 75.1031 423.86 75.428 424.306 75.6563V76.2893H413.106V75.6573C413.538 75.4102 413.91 75.0723 414.199 74.6672C414.487 74.262 414.684 73.799 414.776 73.3103C414.982 72.3306 415.088 71.3325 415.092 70.3313V40.0893C415.092 39.186 415.047 38.283 414.957 37.3803C414.901 36.93 414.681 36.5159 414.34 36.2165C413.999 35.9171 413.56 35.753 413.106 35.7553V35.1233L421.592 33.1373H422.224V70.3323H422.229ZM405.483 0.953314C404.463 1.20961 403.489 1.62072 402.594 2.17231C401.741 2.69533 401.004 3.38635 400.427 4.20331C399.84 5.06701 399.54 6.09358 399.57 7.13732C399.579 8.13526 399.843 9.11435 400.337 9.98131C400.848 10.9146 401.405 11.8927 402.007 12.9153C402.646 14.0169 403.204 15.1636 403.677 16.3463C404.22 17.7875 404.481 19.3197 404.445 20.8593V69.9713C404.447 70.9554 404.537 71.9374 404.715 72.9053C404.804 73.3954 404.994 73.8615 405.274 74.2735C405.554 74.6855 405.917 75.0342 406.34 75.2973V75.8393H397.403V73.0393C394.269 75.2 390.556 76.3641 386.75 76.3793C383.647 76.4231 380.571 75.8097 377.722 74.5793C375.082 73.4253 372.702 71.7521 370.722 69.6593C368.733 67.5307 367.183 65.0302 366.163 62.3013C365.069 59.418 364.518 56.3571 364.538 53.2733C364.53 50.7393 364.88 48.2168 365.576 45.7803C366.216 43.4776 367.288 41.3178 368.736 39.4163C370.158 37.5731 371.979 36.076 374.062 35.0373C376.381 33.913 378.934 33.356 381.51 33.4123C384.885 33.4137 388.2 34.301 391.125 35.9853C394.111 37.637 396.355 40.3649 397.399 43.6133V12.2823C397.399 11.5603 397.383 10.8243 397.354 10.0703C397.323 9.32602 397.399 8.58108 397.579 7.85831C398.162 5.47855 399.652 3.42121 401.732 2.12632C403.729 0.764631 406.086 0.0261288 408.503 0.0043084C410.721 -0.0511282 412.92 0.42912 414.913 1.40432C416.685 2.31014 418.229 3.60636 419.427 5.19532C420.653 6.83704 421.57 8.68772 422.135 10.6573C422.741 12.7398 423.044 14.8986 423.035 17.0673C423.029 18.0034 422.969 18.9383 422.854 19.8673C422.741 20.8626 422.483 21.836 422.087 22.7563C421.715 23.6297 421.161 24.4138 420.462 25.0563C419.729 25.703 418.776 26.0425 417.799 26.0043C417.246 26.0207 416.696 25.921 416.185 25.7118C415.673 25.5025 415.211 25.1882 414.828 24.7893C414.441 24.3885 414.138 23.9146 413.936 23.3951C413.735 22.8757 413.639 22.3213 413.654 21.7643C413.598 21.2081 413.684 20.6467 413.905 20.1332C414.126 19.6198 414.475 19.1713 414.918 18.8303C415.797 18.2386 416.717 17.7106 417.671 17.2503C418.663 16.7696 419.589 16.1629 420.425 15.4453C420.881 14.9871 421.231 14.4341 421.449 13.8256C421.668 13.2171 421.75 12.568 421.689 11.9243C421.699 10.337 421.277 8.7769 420.47 7.41031C419.651 6.01994 418.58 4.79516 417.31 3.79931C416.018 2.77789 414.57 1.97031 413.022 1.40731C411.58 0.858248 410.051 0.567801 408.508 0.549307C407.487 0.555767 406.471 0.691172 405.484 0.952306L405.483 0.953314ZM397.403 44.6933C397.299 43.905 397.021 43.1497 396.59 42.4813C396.227 41.7699 395.805 41.0905 395.327 40.4503C394.118 38.7638 392.516 37.3973 390.659 36.4691C388.803 35.5409 386.749 35.079 384.674 35.1233C382.424 35.0617 380.207 35.675 378.309 36.8843C376.545 38.0455 375.064 39.5881 373.976 41.3983C372.839 43.2892 372.002 45.3445 371.493 47.4913C370.964 49.6179 370.692 51.8 370.681 53.9913C370.688 56.5809 371.022 59.1592 371.674 61.6653C372.297 64.1673 373.335 66.5475 374.743 68.7073C376.103 70.7906 377.906 72.5476 380.024 73.8523C382.298 75.2146 384.913 75.9036 387.563 75.8393C391.107 75.8408 394.557 74.7013 397.403 72.5893V44.6893V44.6933ZM462.719 36.9743C465.577 39.533 467.006 43.2493 467.007 48.1233V70.3323C467.01 71.3335 467.116 72.3317 467.323 73.3113C467.415 73.8001 467.612 74.2631 467.9 74.6683C468.189 75.0735 468.561 75.4113 468.993 75.6583V76.2003L459.875 76.2903V69.4293C457.719 71.3922 455.358 73.1174 452.833 74.5753C450.287 76.0693 447.385 76.849 444.433 76.8323C440.761 76.9483 437.161 75.8011 434.233 73.5823C431.464 71.4156 430.08 68.1656 430.08 63.8323C430 60.6387 431.056 57.5202 433.06 55.0323C435.09 52.5617 437.693 50.6246 440.643 49.3893C440.183 47.9593 439.939 46.4684 439.921 44.9663C439.841 41.862 440.975 38.8488 443.08 36.5663C444.136 35.4297 445.424 34.5346 446.858 33.9424C448.291 33.3502 449.836 33.0749 451.386 33.1353C456.083 33.136 459.861 34.4153 462.722 36.9733L462.719 36.9743ZM446.559 34.7173C445.29 35.3308 444.154 36.1901 443.219 37.2453C442.281 38.3057 441.547 39.5298 441.052 40.8563C440.537 42.227 440.278 43.6802 440.285 45.1443C440.285 46.5306 440.529 47.906 441.007 49.2073C442.782 48.4754 444.608 47.8718 446.469 47.4013C448.343 46.9229 450.268 46.6804 452.202 46.6793C453.525 46.6793 454.819 46.7393 456.083 46.8593C457.36 46.9831 458.627 47.1943 459.875 47.4913V45.8663C459.873 44.4225 459.706 42.9837 459.375 41.5783C459.061 40.2077 458.527 38.8968 457.795 37.6963C457.094 36.545 456.135 35.5716 454.995 34.8523C453.743 34.1011 452.302 33.7252 450.842 33.7693C449.361 33.7517 447.896 34.0758 446.56 34.7163L446.559 34.7173ZM459.875 68.8873V47.8513C458.759 47.497 457.61 47.2551 456.445 47.1293C455.275 47.008 454.1 46.9479 452.924 46.9493C450.737 46.942 448.567 47.324 446.514 48.0773C444.516 48.8015 442.676 49.9051 441.097 51.3273C439.54 52.7324 438.282 54.4366 437.397 56.3383C436.476 58.3479 436.014 60.537 436.043 62.7473C436.056 64.2287 436.269 65.7016 436.675 67.1263C437.074 68.6125 437.698 70.0289 438.525 71.3263C439.317 72.5693 440.363 73.6306 441.595 74.4403C442.871 75.2655 444.364 75.69 445.883 75.6593C447.142 75.6403 448.39 75.4271 449.583 75.0273C450.916 74.6031 452.214 74.0747 453.465 73.4473C454.719 72.8217 455.913 72.0812 457.031 71.2353C458.033 70.4887 458.984 69.6744 459.875 68.7983V68.8883V68.8873Z" fill="black"/>
</svg>
